<svg id="visual" viewBox="0 0 900 600" width="900" height="600" xmlns="http://www.w3.org/2000/svg" xmlns:xlink="http://www.w3.org/1999/xlink" version="1.1"><rect x="0" y="0" width="900" height="600" fill="#002233"></rect><path d="M0 561L13.7 562.2C27.3 563.3 54.7 565.7 82 564.5C109.3 563.3 136.7 558.7 163.8 556.5C191 554.3 218 554.7 245.2 557.3C272.3 560 299.7 565 327 569.2C354.3 573.3 381.7 576.7 409 576.2C436.3 575.7 463.7 571.3 491 569.7C518.3 568 545.7 569 573 568.7C600.3 568.3 627.7 566.7 654.8 566.2C682 565.7 709 566.3 736.2 565.7C763.3 565 790.7 563 818 564C845.3 565 872.7 569 886.3 571L900 573L900 601L886.3 601C872.7 601 845.3 601 818 601C790.7 601 763.3 601 736.2 601C709 601 682 601 654.8 601C627.7 601 600.3 601 573 601C545.7 601 518.3 601 491 601C463.7 601 436.3 601 409 601C381.7 601 354.3 601 327 601C299.7 601 272.3 601 245.2 601C218 601 191 601 163.8 601C136.7 601 109.3 601 82 601C54.7 601 27.3 601 13.7 601L0 601Z" fill="#0066FF" stroke-linecap="round" stroke-linejoin="miter"></path></svg>